<mxfile host="Electron" modified="2024-02-21T16:51:22.730Z" agent="Mozilla/5.0 (X11; Linux x86_64) AppleWebKit/537.36 (KHTML, like Gecko) draw.io/23.1.5 Chrome/120.0.6099.109 Electron/28.1.0 Safari/537.36" etag="NnCaHfPNGmTu7n8lhwdC" version="23.1.5" type="device">
  <diagram name="Página-1" id="K_Ocb3EG3dDXTc691uHR">
    <mxGraphModel dx="880" dy="531" grid="1" gridSize="10" guides="1" tooltips="1" connect="1" arrows="1" fold="1" page="1" pageScale="1" pageWidth="827" pageHeight="1169" math="0" shadow="0">
      <root>
        <mxCell id="0" />
        <mxCell id="1" parent="0" />
        <mxCell id="H2wiU3H-RSwe61fg-aUp-3" value="" style="edgeStyle=orthogonalEdgeStyle;rounded=0;orthogonalLoop=1;jettySize=auto;html=1;" edge="1" parent="1" source="H2wiU3H-RSwe61fg-aUp-1" target="H2wiU3H-RSwe61fg-aUp-2">
          <mxGeometry relative="1" as="geometry" />
        </mxCell>
        <mxCell id="H2wiU3H-RSwe61fg-aUp-1" value="Formulario" style="rounded=1;whiteSpace=wrap;html=1;" vertex="1" parent="1">
          <mxGeometry x="110" y="115" width="120" height="30" as="geometry" />
        </mxCell>
        <mxCell id="H2wiU3H-RSwe61fg-aUp-5" value="" style="edgeStyle=orthogonalEdgeStyle;rounded=0;orthogonalLoop=1;jettySize=auto;html=1;" edge="1" parent="1" source="H2wiU3H-RSwe61fg-aUp-2" target="H2wiU3H-RSwe61fg-aUp-4">
          <mxGeometry relative="1" as="geometry" />
        </mxCell>
        <mxCell id="H2wiU3H-RSwe61fg-aUp-2" value="Nombre y Apellido" style="rounded=1;whiteSpace=wrap;html=1;" vertex="1" parent="1">
          <mxGeometry x="110" y="230" width="120" height="35" as="geometry" />
        </mxCell>
        <mxCell id="H2wiU3H-RSwe61fg-aUp-8" value="" style="edgeStyle=orthogonalEdgeStyle;rounded=0;orthogonalLoop=1;jettySize=auto;html=1;" edge="1" parent="1" source="H2wiU3H-RSwe61fg-aUp-4" target="H2wiU3H-RSwe61fg-aUp-7">
          <mxGeometry relative="1" as="geometry" />
        </mxCell>
        <mxCell id="H2wiU3H-RSwe61fg-aUp-21" value="" style="edgeStyle=orthogonalEdgeStyle;rounded=0;orthogonalLoop=1;jettySize=auto;html=1;" edge="1" parent="1" source="H2wiU3H-RSwe61fg-aUp-4" target="H2wiU3H-RSwe61fg-aUp-20">
          <mxGeometry relative="1" as="geometry" />
        </mxCell>
        <mxCell id="H2wiU3H-RSwe61fg-aUp-4" value="Correo electronico" style="rounded=1;whiteSpace=wrap;html=1;" vertex="1" parent="1">
          <mxGeometry x="110" y="265" width="120" height="35" as="geometry" />
        </mxCell>
        <mxCell id="H2wiU3H-RSwe61fg-aUp-22" value="" style="edgeStyle=orthogonalEdgeStyle;rounded=0;orthogonalLoop=1;jettySize=auto;html=1;" edge="1" parent="1" source="H2wiU3H-RSwe61fg-aUp-7" target="H2wiU3H-RSwe61fg-aUp-20">
          <mxGeometry relative="1" as="geometry" />
        </mxCell>
        <mxCell id="H2wiU3H-RSwe61fg-aUp-24" value="" style="edgeStyle=orthogonalEdgeStyle;rounded=0;orthogonalLoop=1;jettySize=auto;html=1;" edge="1" parent="1" source="H2wiU3H-RSwe61fg-aUp-7" target="H2wiU3H-RSwe61fg-aUp-23">
          <mxGeometry relative="1" as="geometry" />
        </mxCell>
        <mxCell id="H2wiU3H-RSwe61fg-aUp-7" value="Numero de Telefono" style="rounded=1;whiteSpace=wrap;html=1;" vertex="1" parent="1">
          <mxGeometry x="110" y="300" width="120" height="35" as="geometry" />
        </mxCell>
        <mxCell id="H2wiU3H-RSwe61fg-aUp-14" value="" style="edgeStyle=orthogonalEdgeStyle;rounded=0;orthogonalLoop=1;jettySize=auto;html=1;" edge="1" parent="1" source="H2wiU3H-RSwe61fg-aUp-12" target="H2wiU3H-RSwe61fg-aUp-13">
          <mxGeometry relative="1" as="geometry" />
        </mxCell>
        <mxCell id="H2wiU3H-RSwe61fg-aUp-12" value="Inscripcion" style="rounded=1;whiteSpace=wrap;html=1;" vertex="1" parent="1">
          <mxGeometry x="310" y="20" width="180" height="30" as="geometry" />
        </mxCell>
        <mxCell id="H2wiU3H-RSwe61fg-aUp-16" style="edgeStyle=orthogonalEdgeStyle;rounded=0;orthogonalLoop=1;jettySize=auto;html=1;exitX=0;exitY=0.5;exitDx=0;exitDy=0;entryX=1;entryY=0.5;entryDx=0;entryDy=0;" edge="1" parent="1" source="H2wiU3H-RSwe61fg-aUp-13" target="H2wiU3H-RSwe61fg-aUp-1">
          <mxGeometry relative="1" as="geometry" />
        </mxCell>
        <mxCell id="H2wiU3H-RSwe61fg-aUp-17" value="SI" style="edgeLabel;html=1;align=center;verticalAlign=middle;resizable=0;points=[];" vertex="1" connectable="0" parent="H2wiU3H-RSwe61fg-aUp-16">
          <mxGeometry x="-0.0167" relative="1" as="geometry">
            <mxPoint as="offset" />
          </mxGeometry>
        </mxCell>
        <mxCell id="H2wiU3H-RSwe61fg-aUp-27" style="edgeStyle=orthogonalEdgeStyle;rounded=0;orthogonalLoop=1;jettySize=auto;html=1;exitX=1;exitY=0.5;exitDx=0;exitDy=0;entryX=0.5;entryY=0;entryDx=0;entryDy=0;" edge="1" parent="1" source="H2wiU3H-RSwe61fg-aUp-13" target="H2wiU3H-RSwe61fg-aUp-25">
          <mxGeometry relative="1" as="geometry" />
        </mxCell>
        <mxCell id="H2wiU3H-RSwe61fg-aUp-28" value="NO" style="edgeLabel;html=1;align=center;verticalAlign=middle;resizable=0;points=[];" vertex="1" connectable="0" parent="H2wiU3H-RSwe61fg-aUp-27">
          <mxGeometry x="-0.5622" relative="1" as="geometry">
            <mxPoint as="offset" />
          </mxGeometry>
        </mxCell>
        <mxCell id="H2wiU3H-RSwe61fg-aUp-13" value="Deseas recibir Promociones" style="rhombus;whiteSpace=wrap;html=1;rounded=1;" vertex="1" parent="1">
          <mxGeometry x="350" y="80" width="100" height="100" as="geometry" />
        </mxCell>
        <mxCell id="H2wiU3H-RSwe61fg-aUp-20" value="&quot;nesesita Validación&quot;" style="rounded=1;whiteSpace=wrap;html=1;" vertex="1" parent="1">
          <mxGeometry x="310" y="265" width="120" height="35" as="geometry" />
        </mxCell>
        <mxCell id="H2wiU3H-RSwe61fg-aUp-26" value="" style="edgeStyle=orthogonalEdgeStyle;rounded=0;orthogonalLoop=1;jettySize=auto;html=1;" edge="1" parent="1" source="H2wiU3H-RSwe61fg-aUp-23" target="H2wiU3H-RSwe61fg-aUp-25">
          <mxGeometry relative="1" as="geometry" />
        </mxCell>
        <mxCell id="H2wiU3H-RSwe61fg-aUp-23" value="REGISTRO COMPLETO" style="shape=document;whiteSpace=wrap;html=1;boundedLbl=1;rounded=1;" vertex="1" parent="1">
          <mxGeometry x="110" y="412.5" width="120" height="80" as="geometry" />
        </mxCell>
        <mxCell id="H2wiU3H-RSwe61fg-aUp-25" value="&quot;GRASIAS POR VISITARNOS&quot;" style="shape=document;whiteSpace=wrap;html=1;boundedLbl=1;rounded=1;" vertex="1" parent="1">
          <mxGeometry x="610" y="412.5" width="120" height="80" as="geometry" />
        </mxCell>
      </root>
    </mxGraphModel>
  </diagram>
</mxfile>
